<svg xmlns="http://www.w3.org/2000/svg" width="186" height="186" viewBox="0 0 186 186">
  <g id="Group_5" data-name="Group 5" transform="translate(-142 -222)">
    <rect id="Rectangle_1" data-name="Rectangle 1" width="186" height="186" transform="translate(142 222)" fill="rgba(54,61,58,0.13)"/>
    <g id="ice-cream" transform="translate(218.436 287.257)">
      <g id="Group_2" data-name="Group 2" transform="translate(8.183 3.93)">
        <g id="Group_1" data-name="Group 1">
          <path id="Path_1" data-name="Path 1" d="M157.375,31.123a1.139,1.139,0,0,0-1.246-.831c-.208,0-6.022,1.142-7.061,6.645a1.051,1.051,0,0,0,.831,1.246h.208a1.011,1.011,0,0,0,1.038-.831c.831-4.049,5.192-4.88,5.4-4.984A1.077,1.077,0,0,0,157.375,31.123Z" transform="translate(-149.048 -30.277)" fill="rgba(54,61,58,0.56)"/>
        </g>
      </g>
      <g id="Group_4" data-name="Group 4" transform="translate(0 0)">
        <g id="Group_3" data-name="Group 3">
          <path id="Path_2" data-name="Path 2" d="M118.292,17.548a1.142,1.142,0,0,0-1.038-.623h-.1a2.675,2.675,0,0,1-2.8-2.077,1.029,1.029,0,0,0-1.142-.831h-.415a2.571,2.571,0,0,1-2.6-2.6,2.087,2.087,0,0,1,.415-1.35.984.984,0,0,0-.208-1.35,2.675,2.675,0,0,1-1.038-1.973V6.541a1.011,1.011,0,0,0-.831-1.038,2.658,2.658,0,0,1-2.077-2.6,3.689,3.689,0,0,1,.208-1.038,1.137,1.137,0,0,0,0-.831.767.767,0,0,0-.623-.519A15.443,15.443,0,0,0,102.3,0C96.072,0,90.88,3.842,90.153,8.93a6.779,6.779,0,0,0-3.011,5.711,9.144,9.144,0,0,0,.208,1.765A6.848,6.848,0,0,0,86,20.559,7.138,7.138,0,0,0,90.465,27.1l11.11,27.619a1,1,0,0,0,.934.623.908.908,0,0,0,.934-.623L114.554,27.1a7.03,7.03,0,0,0,4.465-6.541A6.145,6.145,0,0,0,118.292,17.548ZM93.061,28.035l-.208-.415h.623Zm.831,2.18L96.9,27a6,6,0,0,0,2.388,1.869l1.557,1.661L97.11,34.472l-2.7-3.011Zm8.41,1.765,3.738,3.946L102.3,39.975l-3.738-4.049Zm-5.4,5.711.208-.208,3.738,4.153L99.187,43.4Zm5.607,13.81-2.388-6.022,2.18-2.388,2.492,2.8Zm3.219-7.787-1.973-2.18,3.738-4.049.519.519Zm1.765-9.345-3.738-3.842,1.454-1.557A9.094,9.094,0,0,0,107.7,27l3.323,3.53Zm4.361-5.918-.831-.934c.311,0,.623.1,1.038.1h.1Zm.208-2.907a4.708,4.708,0,0,1-3.426-1.454,1.449,1.449,0,0,0-.934-.311,1.1,1.1,0,0,0-.727.623,4.964,4.964,0,0,1-9.033.208,1.1,1.1,0,0,0-.727-.623h-.208a1.122,1.122,0,0,0-.727.311,4.9,4.9,0,0,1-3.323,1.246,4.985,4.985,0,0,1-4.984-4.984,4.467,4.467,0,0,1,1.246-3.219,1.279,1.279,0,0,0,.208-1.038,4.7,4.7,0,0,1-.311-1.661A4.916,4.916,0,0,1,91.4,10.487a1.427,1.427,0,0,0,.519-.831C92.23,5.5,96.695,2.18,102.094,2.18a15.491,15.491,0,0,1,2.18.208v.623a4.75,4.75,0,0,0,2.907,4.361,4.589,4.589,0,0,0,1.142,2.492,4.85,4.85,0,0,0-.311,1.765,4.632,4.632,0,0,0,4.569,4.672,4.8,4.8,0,0,0,4.153,2.907,3.534,3.534,0,0,1,.208,1.454A4.874,4.874,0,0,1,112.062,25.543Z" transform="translate(-86 0)" fill="rgba(54,61,58,0.56)"/>
        </g>
      </g>
    </g>
  </g>
</svg>
